<mxfile host="app.diagrams.net" modified="2024-01-15T12:55:56.268Z" agent="Mozilla/5.0 (Macintosh; Intel Mac OS X 10_15_7) AppleWebKit/537.36 (KHTML, like Gecko) Chrome/120.0.0.0 Safari/537.36" etag="gZi4yK9229amykf4M4Bk" version="22.1.18" type="github">
  <diagram name="Page-1" id="JNoKeEhUsSiIVOGm3DSZ">
    <mxGraphModel dx="1646" dy="854" grid="1" gridSize="10" guides="1" tooltips="1" connect="1" arrows="1" fold="1" page="1" pageScale="1" pageWidth="1920" pageHeight="1200" math="0" shadow="0">
      <root>
        <mxCell id="0" />
        <mxCell id="1" parent="0" />
        <mxCell id="CBZbs6wx1SUjHwiTuZBU-10" style="edgeStyle=orthogonalEdgeStyle;rounded=0;orthogonalLoop=1;jettySize=auto;html=1;exitX=0.5;exitY=1;exitDx=0;exitDy=0;startArrow=classic;startFill=1;" edge="1" parent="1" source="CBZbs6wx1SUjHwiTuZBU-2" target="CBZbs6wx1SUjHwiTuZBU-6">
          <mxGeometry relative="1" as="geometry" />
        </mxCell>
        <mxCell id="CBZbs6wx1SUjHwiTuZBU-11" style="edgeStyle=orthogonalEdgeStyle;rounded=0;orthogonalLoop=1;jettySize=auto;html=1;exitX=0.75;exitY=1;exitDx=0;exitDy=0;entryX=0.5;entryY=0;entryDx=0;entryDy=0;startArrow=classic;startFill=1;" edge="1" parent="1" source="CBZbs6wx1SUjHwiTuZBU-2" target="CBZbs6wx1SUjHwiTuZBU-7">
          <mxGeometry relative="1" as="geometry" />
        </mxCell>
        <mxCell id="CBZbs6wx1SUjHwiTuZBU-12" style="edgeStyle=orthogonalEdgeStyle;rounded=0;orthogonalLoop=1;jettySize=auto;html=1;exitX=0.25;exitY=1;exitDx=0;exitDy=0;entryX=0.5;entryY=0;entryDx=0;entryDy=0;startArrow=classic;startFill=1;" edge="1" parent="1" source="CBZbs6wx1SUjHwiTuZBU-2" target="CBZbs6wx1SUjHwiTuZBU-8">
          <mxGeometry relative="1" as="geometry" />
        </mxCell>
        <mxCell id="CBZbs6wx1SUjHwiTuZBU-2" value="Delivery Manager Module" style="rounded=1;whiteSpace=wrap;html=1;fillColor=#f8cecc;strokeColor=#b85450;" vertex="1" parent="1">
          <mxGeometry x="830" y="350" width="230" height="60" as="geometry" />
        </mxCell>
        <mxCell id="CBZbs6wx1SUjHwiTuZBU-16" style="edgeStyle=orthogonalEdgeStyle;rounded=0;orthogonalLoop=1;jettySize=auto;html=1;exitX=0.75;exitY=0;exitDx=0;exitDy=0;entryX=0;entryY=0.5;entryDx=0;entryDy=0;startArrow=classic;startFill=1;" edge="1" parent="1" source="CBZbs6wx1SUjHwiTuZBU-3" target="CBZbs6wx1SUjHwiTuZBU-4">
          <mxGeometry relative="1" as="geometry" />
        </mxCell>
        <mxCell id="CBZbs6wx1SUjHwiTuZBU-17" style="edgeStyle=orthogonalEdgeStyle;rounded=0;orthogonalLoop=1;jettySize=auto;html=1;exitX=0.75;exitY=1;exitDx=0;exitDy=0;entryX=0;entryY=0.5;entryDx=0;entryDy=0;startArrow=classic;startFill=1;" edge="1" parent="1" source="CBZbs6wx1SUjHwiTuZBU-3" target="CBZbs6wx1SUjHwiTuZBU-5">
          <mxGeometry relative="1" as="geometry">
            <Array as="points">
              <mxPoint x="563" y="290" />
              <mxPoint x="780" y="290" />
              <mxPoint x="780" y="220" />
            </Array>
          </mxGeometry>
        </mxCell>
        <mxCell id="CBZbs6wx1SUjHwiTuZBU-34" style="edgeStyle=orthogonalEdgeStyle;rounded=0;orthogonalLoop=1;jettySize=auto;html=1;exitX=1;exitY=0.5;exitDx=0;exitDy=0;entryX=0.5;entryY=0;entryDx=0;entryDy=0;endArrow=open;endFill=0;" edge="1" parent="1" source="CBZbs6wx1SUjHwiTuZBU-3" target="CBZbs6wx1SUjHwiTuZBU-27">
          <mxGeometry relative="1" as="geometry">
            <Array as="points">
              <mxPoint x="760" y="240" />
              <mxPoint x="760" y="130" />
              <mxPoint x="1275" y="130" />
            </Array>
          </mxGeometry>
        </mxCell>
        <mxCell id="CBZbs6wx1SUjHwiTuZBU-3" value="Application Module" style="rounded=1;whiteSpace=wrap;html=1;fillColor=#dae8fc;strokeColor=#6c8ebf;" vertex="1" parent="1">
          <mxGeometry x="390" y="210" width="230" height="60" as="geometry" />
        </mxCell>
        <mxCell id="CBZbs6wx1SUjHwiTuZBU-4" value="Auth" style="rounded=1;whiteSpace=wrap;html=1;fillColor=#f5f5f5;fontColor=#333333;strokeColor=#666666;" vertex="1" parent="1">
          <mxGeometry x="560" y="60" width="120" height="60" as="geometry" />
        </mxCell>
        <mxCell id="CBZbs6wx1SUjHwiTuZBU-9" style="edgeStyle=orthogonalEdgeStyle;rounded=0;orthogonalLoop=1;jettySize=auto;html=1;exitX=0.5;exitY=1;exitDx=0;exitDy=0;startArrow=classic;startFill=1;" edge="1" parent="1" source="CBZbs6wx1SUjHwiTuZBU-5" target="CBZbs6wx1SUjHwiTuZBU-2">
          <mxGeometry relative="1" as="geometry" />
        </mxCell>
        <mxCell id="CBZbs6wx1SUjHwiTuZBU-5" value="Oder Manager Module" style="rounded=1;whiteSpace=wrap;html=1;fillColor=#f8cecc;strokeColor=#b85450;" vertex="1" parent="1">
          <mxGeometry x="830" y="190" width="230" height="60" as="geometry" />
        </mxCell>
        <mxCell id="CBZbs6wx1SUjHwiTuZBU-6" value="Fleet Manager Module" style="rounded=1;whiteSpace=wrap;html=1;fillColor=#ffe6cc;strokeColor=#d79b00;" vertex="1" parent="1">
          <mxGeometry x="830" y="540" width="230" height="60" as="geometry" />
        </mxCell>
        <mxCell id="CBZbs6wx1SUjHwiTuZBU-7" value="Human Delivery Module" style="rounded=1;whiteSpace=wrap;html=1;fillColor=#ffe6cc;strokeColor=#d79b00;" vertex="1" parent="1">
          <mxGeometry x="1150" y="540" width="230" height="60" as="geometry" />
        </mxCell>
        <mxCell id="CBZbs6wx1SUjHwiTuZBU-8" value="Vehicle Module" style="rounded=1;whiteSpace=wrap;html=1;fillColor=#d5e8d4;strokeColor=#82b366;" vertex="1" parent="1">
          <mxGeometry x="510" y="540" width="230" height="60" as="geometry" />
        </mxCell>
        <mxCell id="CBZbs6wx1SUjHwiTuZBU-15" style="edgeStyle=orthogonalEdgeStyle;rounded=0;orthogonalLoop=1;jettySize=auto;html=1;exitX=0.25;exitY=0;exitDx=0;exitDy=0;entryX=0.5;entryY=1;entryDx=0;entryDy=0;startArrow=open;startFill=0;endArrow=none;endFill=0;" edge="1" parent="1" source="CBZbs6wx1SUjHwiTuZBU-13" target="CBZbs6wx1SUjHwiTuZBU-8">
          <mxGeometry relative="1" as="geometry" />
        </mxCell>
        <mxCell id="CBZbs6wx1SUjHwiTuZBU-30" style="edgeStyle=orthogonalEdgeStyle;rounded=0;orthogonalLoop=1;jettySize=auto;html=1;exitX=1;exitY=0.5;exitDx=0;exitDy=0;entryX=1;entryY=0.5;entryDx=0;entryDy=0;startArrow=classic;startFill=1;" edge="1" parent="1" source="CBZbs6wx1SUjHwiTuZBU-13" target="CBZbs6wx1SUjHwiTuZBU-27">
          <mxGeometry relative="1" as="geometry" />
        </mxCell>
        <mxCell id="CBZbs6wx1SUjHwiTuZBU-13" value="Fleet Analytics Module" style="rounded=1;whiteSpace=wrap;html=1;fillColor=#f5f5f5;fontColor=#333333;strokeColor=#666666;" vertex="1" parent="1">
          <mxGeometry x="660" y="700" width="230" height="60" as="geometry" />
        </mxCell>
        <mxCell id="CBZbs6wx1SUjHwiTuZBU-14" style="edgeStyle=orthogonalEdgeStyle;rounded=0;orthogonalLoop=1;jettySize=auto;html=1;exitX=0.75;exitY=0;exitDx=0;exitDy=0;entryX=0.474;entryY=1;entryDx=0;entryDy=0;entryPerimeter=0;startArrow=open;startFill=0;endArrow=none;endFill=0;" edge="1" parent="1" source="CBZbs6wx1SUjHwiTuZBU-13" target="CBZbs6wx1SUjHwiTuZBU-6">
          <mxGeometry relative="1" as="geometry" />
        </mxCell>
        <mxCell id="CBZbs6wx1SUjHwiTuZBU-19" style="edgeStyle=orthogonalEdgeStyle;rounded=0;orthogonalLoop=1;jettySize=auto;html=1;exitX=1;exitY=0.5;exitDx=0;exitDy=0;entryX=0;entryY=0.5;entryDx=0;entryDy=0;startArrow=classic;startFill=1;" edge="1" parent="1" source="CBZbs6wx1SUjHwiTuZBU-18" target="CBZbs6wx1SUjHwiTuZBU-2">
          <mxGeometry relative="1" as="geometry" />
        </mxCell>
        <mxCell id="CBZbs6wx1SUjHwiTuZBU-18" value="Issue Resolver Module" style="rounded=1;whiteSpace=wrap;html=1;fillColor=#f8cecc;strokeColor=#b85450;" vertex="1" parent="1">
          <mxGeometry x="420" y="350" width="230" height="60" as="geometry" />
        </mxCell>
        <mxCell id="CBZbs6wx1SUjHwiTuZBU-22" style="edgeStyle=orthogonalEdgeStyle;rounded=0;orthogonalLoop=1;jettySize=auto;html=1;exitX=0.5;exitY=0;exitDx=0;exitDy=0;entryX=0.25;entryY=1;entryDx=0;entryDy=0;startArrow=open;startFill=0;endArrow=none;endFill=0;" edge="1" parent="1" source="CBZbs6wx1SUjHwiTuZBU-20" target="CBZbs6wx1SUjHwiTuZBU-3">
          <mxGeometry relative="1" as="geometry" />
        </mxCell>
        <mxCell id="CBZbs6wx1SUjHwiTuZBU-33" style="edgeStyle=orthogonalEdgeStyle;rounded=0;orthogonalLoop=1;jettySize=auto;html=1;exitX=0;exitY=0.5;exitDx=0;exitDy=0;entryX=0;entryY=0.5;entryDx=0;entryDy=0;endArrow=open;endFill=0;" edge="1" parent="1" source="CBZbs6wx1SUjHwiTuZBU-20" target="CBZbs6wx1SUjHwiTuZBU-23">
          <mxGeometry relative="1" as="geometry" />
        </mxCell>
        <mxCell id="CBZbs6wx1SUjHwiTuZBU-20" value="Notifications Module" style="rounded=1;whiteSpace=wrap;html=1;fillColor=#f8cecc;strokeColor=#b85450;" vertex="1" parent="1">
          <mxGeometry x="120" y="350" width="230" height="60" as="geometry" />
        </mxCell>
        <mxCell id="CBZbs6wx1SUjHwiTuZBU-21" style="edgeStyle=orthogonalEdgeStyle;rounded=0;orthogonalLoop=1;jettySize=auto;html=1;exitX=0.5;exitY=0;exitDx=0;exitDy=0;entryX=0.422;entryY=1.017;entryDx=0;entryDy=0;entryPerimeter=0;startArrow=none;startFill=0;endArrow=open;endFill=0;" edge="1" parent="1" source="CBZbs6wx1SUjHwiTuZBU-18" target="CBZbs6wx1SUjHwiTuZBU-3">
          <mxGeometry relative="1" as="geometry" />
        </mxCell>
        <mxCell id="CBZbs6wx1SUjHwiTuZBU-24" style="edgeStyle=orthogonalEdgeStyle;rounded=0;orthogonalLoop=1;jettySize=auto;html=1;exitX=0.5;exitY=1;exitDx=0;exitDy=0;entryX=0.5;entryY=0;entryDx=0;entryDy=0;startArrow=classic;startFill=1;" edge="1" parent="1" source="CBZbs6wx1SUjHwiTuZBU-23" target="CBZbs6wx1SUjHwiTuZBU-3">
          <mxGeometry relative="1" as="geometry" />
        </mxCell>
        <mxCell id="CBZbs6wx1SUjHwiTuZBU-23" value="Application Interface" style="rounded=1;whiteSpace=wrap;html=1;fillColor=#f5f5f5;fontColor=#333333;strokeColor=#666666;" vertex="1" parent="1">
          <mxGeometry x="220" y="60" width="230" height="60" as="geometry" />
        </mxCell>
        <mxCell id="CBZbs6wx1SUjHwiTuZBU-26" style="edgeStyle=orthogonalEdgeStyle;rounded=0;orthogonalLoop=1;jettySize=auto;html=1;exitX=1;exitY=0.5;exitDx=0;exitDy=0;startArrow=classic;startFill=1;" edge="1" parent="1" source="CBZbs6wx1SUjHwiTuZBU-25" target="CBZbs6wx1SUjHwiTuZBU-3">
          <mxGeometry relative="1" as="geometry" />
        </mxCell>
        <mxCell id="CBZbs6wx1SUjHwiTuZBU-25" value="Customer Support Module" style="rounded=1;whiteSpace=wrap;html=1;fillColor=#f8cecc;strokeColor=#b85450;" vertex="1" parent="1">
          <mxGeometry x="110" y="210" width="230" height="60" as="geometry" />
        </mxCell>
        <mxCell id="CBZbs6wx1SUjHwiTuZBU-28" style="edgeStyle=orthogonalEdgeStyle;rounded=0;orthogonalLoop=1;jettySize=auto;html=1;exitX=0;exitY=0.5;exitDx=0;exitDy=0;startArrow=classic;startFill=1;" edge="1" parent="1" source="CBZbs6wx1SUjHwiTuZBU-27" target="CBZbs6wx1SUjHwiTuZBU-5">
          <mxGeometry relative="1" as="geometry" />
        </mxCell>
        <mxCell id="CBZbs6wx1SUjHwiTuZBU-29" style="edgeStyle=orthogonalEdgeStyle;rounded=0;orthogonalLoop=1;jettySize=auto;html=1;exitX=0.5;exitY=1;exitDx=0;exitDy=0;entryX=1;entryY=0.5;entryDx=0;entryDy=0;startArrow=classic;startFill=1;" edge="1" parent="1" source="CBZbs6wx1SUjHwiTuZBU-27" target="CBZbs6wx1SUjHwiTuZBU-2">
          <mxGeometry relative="1" as="geometry" />
        </mxCell>
        <mxCell id="CBZbs6wx1SUjHwiTuZBU-27" value="Analytics Module" style="rounded=1;whiteSpace=wrap;html=1;fillColor=#f5f5f5;fontColor=#333333;strokeColor=#666666;" vertex="1" parent="1">
          <mxGeometry x="1160" y="190" width="230" height="60" as="geometry" />
        </mxCell>
        <mxCell id="CBZbs6wx1SUjHwiTuZBU-32" style="edgeStyle=orthogonalEdgeStyle;rounded=0;orthogonalLoop=1;jettySize=auto;html=1;exitX=0.5;exitY=0;exitDx=0;exitDy=0;entryX=0.287;entryY=1.017;entryDx=0;entryDy=0;entryPerimeter=0;startArrow=classic;startFill=1;" edge="1" parent="1" source="CBZbs6wx1SUjHwiTuZBU-25" target="CBZbs6wx1SUjHwiTuZBU-23">
          <mxGeometry relative="1" as="geometry" />
        </mxCell>
        <mxCell id="CBZbs6wx1SUjHwiTuZBU-35" style="edgeStyle=orthogonalEdgeStyle;rounded=0;orthogonalLoop=1;jettySize=auto;html=1;exitX=0.25;exitY=1;exitDx=0;exitDy=0;entryX=0.352;entryY=-0.017;entryDx=0;entryDy=0;entryPerimeter=0;endArrow=open;endFill=0;" edge="1" parent="1" source="CBZbs6wx1SUjHwiTuZBU-25" target="CBZbs6wx1SUjHwiTuZBU-20">
          <mxGeometry relative="1" as="geometry" />
        </mxCell>
      </root>
    </mxGraphModel>
  </diagram>
</mxfile>
